<?xml version="1.0" encoding="UTF-8" standalone="no"?>
<svg
   version="1.1"
   width="32"
   height="32"
   viewBox="0 0 32 32"
   id="svg1"
   sodipodi:docname="android-logo.svg"
   inkscape:version="1.4.2 (ebf0e940d0, 2025-05-08)"
   xmlns:inkscape="http://www.inkscape.org/namespaces/inkscape"
   xmlns:sodipodi="http://sodipodi.sourceforge.net/DTD/sodipodi-0.dtd"
   xmlns="http://www.w3.org/2000/svg"
   xmlns:svg="http://www.w3.org/2000/svg">
  <defs
     id="defs1" />
  <sodipodi:namedview
     id="namedview1"
     pagecolor="#ffffff"
     bordercolor="#000000"
     borderopacity="0.25"
     inkscape:showpageshadow="2"
     inkscape:pageopacity="0.0"
     inkscape:pagecheckerboard="0"
     inkscape:deskcolor="#d1d1d1"
     inkscape:zoom="24.90625"
     inkscape:cx="16.020075"
     inkscape:cy="16"
     inkscape:window-width="1078"
     inkscape:window-height="1008"
     inkscape:window-x="0"
     inkscape:window-y="0"
     inkscape:window-maximized="0"
     inkscape:current-layer="svg1" />
  <title
     id="title1">android</title>
  <path
     d="M32 25.333h-32c0.318-2.896 1.328-5.672 2.948-8.094 1.245-1.922 2.911-3.531 4.88-4.708l0.547-0.302-2.693-4.547c-0.198-0.323-0.094-0.74 0.224-0.938 0.318-0.188 0.734-0.083 0.922 0.24l2.771 4.667c2.052-0.818 4.245-1.224 6.453-1.198 2.172-0.026 4.323 0.38 6.333 1.198l2.76-4.667c0.193-0.323 0.615-0.427 0.932-0.224 0.318 0.198 0.411 0.615 0.214 0.932l-2.693 4.562 0.667 0.37c1.958 1.224 3.615 2.87 4.839 4.828 1.531 2.385 2.521 5.073 2.896 7.88zM22 19.359c0 0.74 0.599 1.333 1.333 1.333s1.333-0.594 1.333-1.333c0-0.734-0.599-1.333-1.333-1.333s-1.333 0.599-1.333 1.333zM7.333 19.359c0 0.74 0.599 1.333 1.333 1.333s1.333-0.594 1.333-1.333c0-0.734-0.599-1.333-1.333-1.333s-1.333 0.599-1.333 1.333z"
     id="path1"
     style="fill:#ffffff" />
</svg>
